Top.Chef.S06E04.HDTV.XviD-DODECAHEDRON (350 MB)

Top Chef Season 6, Episode 4 - Vivre Las Vegas
 
The contestants must tap into their traditional cooking skills when they're asked to show their mastery of French cuisine, and as if that's not stress enough tonight's judges are some of the biggest names in the industry: Daniel Boulud, Hubert Keller, Joel Robuchon and Jean Joho. 

--
Note: Apparently no one plans to release a 350MB version for this weeks' episode so here is mine. Info:


   General
      Format : AVI
      Format/Info : Audio Video Interleave
      File size : 350 MiB
      Duration : 54mn 59s
      Overall bit rate : 890 Kbps
      Writing application : VirtualDubMod 1.5.4.1 (build 2178/release)
      Writing library : VirtualDubMod build 2178/release

   Video
      Format : MPEG-4 Visual
      Format profile : Streaming Video@L1
      Format settings, BVOP : Yes
      Format settings, QPel : No
      Format settings, GMC : No warppoints
      Format settings, Matrix : Custom
      Codec ID : XVID
      Codec ID/Hint : XviD
      Duration : 54mn 59s
      Bit rate : 751 Kbps
      Width : 608 pixels
      Height : 352 pixels
      Display aspect ratio : 16/9
      Frame rate : 23.976 fps
      Resolution : 8 bits
      Colorimetry : 4:2:0
      Scan type : Progressive
      Bits/(Pixel*Frame) : 0.146
      Stream size : 295 MiB (84%)
      Writing library : XviD 50

   Audio
      Format : MPEG Audio
      Format version : Version 1
      Format profile : Layer 3
      Codec ID : 55
      Codec ID/Hint : MP3
      Duration : 54mn 59s
      Bit rate mode : Variable
      Bit rate : 127 Kbps
      Nominal bit rate : 128 Kbps
      Channel(s) : 2 channels
      Sampling rate : 48.0 KHz
      Resolution : 16 bits
      Stream size : 49.9 MiB (14%)
      Alignment : Aligned on interleaves
      Interleave, duration : 24 ms (0.58 video frame)
      Interleave, preload duration : 550 ms
      Writing library : LAME3.92 
      Encoding settings : ABR



